# xmcd CD database file
#
# Track frame offsets:
#	150
#	19575
#	41175
#
# Disc length: 805 seconds
#
# Revision: 0
# Processed by: cddbd v1.5PL3 Copyright (c) Steve Scherf et al.
# Submitted via: CDex 1.50beta9
#
DISCID=1d032303
DTITLE=大浦龍宇一 - 夏の午後
DYEAR=1996
DGENRE=J-POP
TTITLE0=夏の午後
TTITLE1=いつかまためぐり逢えたら
TTITLE2=夏の午後　カラオケ
EXTD=YEAR: 1996
EXTT0=
EXTT1=
EXTT2=
PLAYORDER=
